<svg xmlns="http://www.w3.org/2000/svg" width="22.028" height="22.028" viewBox="0 0 22.028 22.028">
  <path id="_11_Exit" data-name="11 Exit" d="M24.028,3.1V22.926a1.1,1.1,0,0,1-1.1,1.1H7.507a1.1,1.1,0,0,1-1.1-1.1V16.318a1.1,1.1,0,1,1,2.2,0v5.507H21.825V4.2H8.608V9.71a1.1,1.1,0,1,1-2.2,0V3.1A1.1,1.1,0,0,1,7.507,2H22.926A1.1,1.1,0,0,1,24.028,3.1ZM14.622,15.349a1.106,1.106,0,0,0,1.564,1.564L19.3,13.8a1.139,1.139,0,0,0,0-1.564L16.186,9.115a1.106,1.106,0,1,0-1.564,1.564l1.245,1.234H3.1a1.1,1.1,0,0,0,0,2.2H15.867Z" transform="translate(-2 -2)" fill="#d20202"/>
</svg>
