<svg xmlns="http://www.w3.org/2000/svg" width="13.221" height="13.793" viewBox="0 0 13.221 13.793">
  <g id="_icons" transform="translate(-3 -2.68)">
    <path id="Tracé_23150" data-name="Tracé 23150" d="M5.444,14.81c.013.011.029.019.042.029.073.057.152.1.228.157.169.121.338.241.517.344l.017.009a6.328,6.328,0,0,0,.691.349l.078.032c.111.046.218.091.34.134a6.983,6.983,0,0,0,.84.231c.164.034.32.059.468.079l.069.007c.1.012.207.024.3.029.173.017.354.026.527.026a6.667,6.667,0,0,0,6.66-6.66.74.74,0,0,0-1.48,0,5.186,5.186,0,0,1-5.18,5.18c-.169,0-.336-.017-.5-.034-.12-.01-.251-.03-.382-.052-.116-.02-.233-.042-.347-.07-.084-.02-.165-.044-.246-.068a5.206,5.206,0,0,1-1.107-.47l-.005,0c-.134-.077-.259-.168-.385-.257-.066-.047-.134-.087-.2-.137s-.135-.119-.2-.178c-.1-.091-.211-.18-.31-.278-.049-.05-.092-.106-.139-.157l1.325-.239A.74.74,0,1,0,6.8,11.358l-3.09.557a.741.741,0,0,0-.6.86l.557,3.089a.741.741,0,0,0,.728.609.758.758,0,0,0,.132-.012.741.741,0,0,0,.6-.86l-.231-1.279.018.015A6.817,6.817,0,0,0,5.444,14.81ZM13.777,4.343c-.013-.01-.028-.018-.041-.028-.077-.059-.16-.109-.239-.165-.165-.118-.33-.235-.505-.337l-.04-.02a6.322,6.322,0,0,0-.671-.339L12.2,3.422c-.111-.046-.218-.091-.34-.134a6.9,6.9,0,0,0-.84-.231c-.163-.034-.319-.059-.467-.079l-.068-.007c-.1-.012-.208-.024-.3-.029-.173-.017-.354-.026-.527-.026A6.667,6.667,0,0,0,3,9.577a.74.74,0,0,0,1.48,0A5.186,5.186,0,0,1,9.66,4.4c.169,0,.336.017.5.034.12.01.251.03.382.052s.233.042.347.07c.084.02.165.044.246.068a5.2,5.2,0,0,1,1.507.735c.062.044.127.082.188.13s.135.118.2.177c.106.092.214.183.315.283.048.049.09.1.136.154l-1.325.239a.74.74,0,0,0,.131,1.468.758.758,0,0,0,.132-.012l3.09-.557a.741.741,0,0,0,.6-.86l-.557-3.089a.74.74,0,1,0-1.457.263l.231,1.279c-.009-.009-.019-.016-.028-.025A6.967,6.967,0,0,0,13.777,4.343Z"/>
  </g>
</svg>
