<svg xmlns="http://www.w3.org/2000/svg" width="13.284" height="14.3" viewBox="0 0 13.284 14.3">
  <path id="eXIT" d="M16.278,8.205a.511.511,0,0,0,0-.148V8.011a.511.511,0,0,0-.061-.153h0L15.2,6.326a.511.511,0,0,0-.848.567l.511.741H13.214V2.511A.511.511,0,0,0,12.7,2H3.377a.511.511,0,0,0-.128.056H3.2a.511.511,0,0,0-.1.117A.495.495,0,0,0,3,2.511V13.746a.571.571,0,0,0,.128.337l.046.046a.511.511,0,0,0,.1.066l.061.031h.031l7.15,2.043a.488.488,0,0,0,.659-.48V14.257H12.7a.511.511,0,0,0,.511-.511V8.639h1.6L14.3,9.38a.511.511,0,1,0,.848.567l1.021-1.532h0a.511.511,0,0,0,.051-.138A.873.873,0,0,0,16.278,8.205Zm-4.086-.587H11.171V4.554a.511.511,0,0,0-.373-.511L7.157,3.021h5.036Zm0,5.618H11.171v-4.6h1.021Z" transform="translate(-2.999 -2)"/>
</svg>
