<svg xmlns="http://www.w3.org/2000/svg" width="47" height="47" viewBox="0 0 47 47">
  <g id="Groupe_20371" data-name="Groupe 20371" transform="translate(-14 -12.267)">
    <circle id="Ellipse_495" data-name="Ellipse 495" cx="23.5" cy="23.5" r="23.5" transform="translate(14 12.267)" fill="#fff"/>
    <g id="Groupe_19876" data-name="Groupe 19876" transform="translate(23.308 19.902)">
      <path id="Tracé_23476" data-name="Tracé 23476" d="M6.66,26.462H5.766a.426.426,0,1,0,0,.851H6.66a.4.4,0,0,0,.426-.426A.426.426,0,0,0,6.66,26.462Zm20.171-15.49-.383-.3a.422.422,0,0,0-.553.638l.383.3a.042.042,0,0,1,.043.043.524.524,0,0,1,.213.426v14a.38.38,0,0,1-.383.383H8.4a.426.426,0,1,0,0,.851H26.15a1.235,1.235,0,0,0,1.234-1.234v-14A1.351,1.351,0,0,0,26.831,10.972ZM8.49,6.376l5.4-4.426a.463.463,0,0,1,.638,0l9.958,8.213a.313.313,0,0,0,.255.085.387.387,0,0,0,.34-.17.411.411,0,0,0-.043-.6L15.086,1.269a1.352,1.352,0,0,0-1.745,0l-5.4,4.426a.44.44,0,0,0,.553.681ZM4.021,26.462H2.192a.325.325,0,0,1-.213-.085.368.368,0,0,1-.128-.255V12.078a.524.524,0,0,1,.213-.426.042.042,0,0,0,.043-.043L6.873,7.695a.422.422,0,0,0-.553-.638L1.553,10.972A1.351,1.351,0,0,0,1,12.078V26.121a1.225,1.225,0,0,0,.383.894,1.068,1.068,0,0,0,.723.3H3.979a.4.4,0,0,0,.426-.426C4.4,26.632,4.277,26.462,4.021,26.462Z" transform="translate(0 0)" fill="#ff8000"/>
      <path id="Tracé_23477" data-name="Tracé 23477" d="M16.49,23.934,5.681,16.444a.431.431,0,1,0-.468.723l11.064,7.66a.426.426,0,0,0,.511,0l11.064-7.66a.431.431,0,1,0-.468-.723ZM27.98,25.3a.426.426,0,1,0-.851,0v.851a.426.426,0,0,0,.851,0Zm-.426,2.128a.4.4,0,0,0-.426.426v.383l-.043.043H24.15a.426.426,0,1,0,0,.851h2.936a.873.873,0,0,0,.894-.894v-.383A.4.4,0,0,0,27.554,27.424Zm-21.7-8.937a.426.426,0,0,0-.851,0V21.04a.426.426,0,0,0,.851,0Zm-.426,3.83A.4.4,0,0,0,5,22.743v.851a.426.426,0,0,0,.851,0v-.851A.4.4,0,0,0,5.426,22.317ZM20.533,10.4a.387.387,0,0,0,.34-.17.416.416,0,0,0-.085-.6L17.6,7.082a.426.426,0,1,0-.511.681l3.192,2.553a.6.6,0,0,0,.255.085Z" transform="translate(-2.298 -3.473)" fill="#ff8000"/>
    </g>
  </g>
</svg>
