<svg id="Groupe_20447" data-name="Groupe 20447" xmlns="http://www.w3.org/2000/svg" width="19.169" height="19.169" viewBox="0 0 19.169 19.169">
  <path id="Tracé_23507" data-name="Tracé 23507" d="M0,0H19.169V19.169H0Z" fill="none"/>
  <path id="Tracé_23508" data-name="Tracé 23508" d="M15.779,3H4.6A1.6,1.6,0,0,0,3,4.6V15.779a1.6,1.6,0,0,0,1.6,1.6H15.779a1.6,1.6,0,0,0,1.6-1.6V4.6A1.6,1.6,0,0,0,15.779,3ZM9.158,13.615a.8.8,0,0,1-1.126,0L5.164,10.747A.8.8,0,0,1,6.291,9.621l2.3,2.3,5.5-5.5a.8.8,0,0,1,1.126,1.126L9.158,13.615Z" transform="translate(-0.604 -0.604)" fill="#ff7900"/>
</svg>
