<svg xmlns="http://www.w3.org/2000/svg" width="22.906" height="26.409" viewBox="0 0 22.906 26.409">
  <g id="Groupe_20456" data-name="Groupe 20456" transform="translate(-2.556 -0.499)">
    <path id="Tracé_23510" data-name="Tracé 23510" d="M2.556,6.325A1.278,1.278,0,0,0,3.834,7.6h.682V22.7a4.21,4.21,0,0,0,4.2,4.206H19.3A4.21,4.21,0,0,0,23.5,22.7V7.6h.682a1.278,1.278,0,1,0,0-2.556H19.711V3.729A3.233,3.233,0,0,0,16.483.5H11.535a3.232,3.232,0,0,0-3.229,3.23V5.046H3.834A1.278,1.278,0,0,0,2.556,6.324Zm8.306-2.6a.674.674,0,0,1,.673-.674h4.948a.674.674,0,0,1,.673.674V5.047H10.861V3.729ZM7.071,7.6H20.947V22.7a1.652,1.652,0,0,1-1.649,1.65H8.72A1.652,1.652,0,0,1,7.071,22.7V7.6Z" fill="#d20202"/>
    <path id="Tracé_23511" data-name="Tracé 23511" d="M12.05,23.643a1.278,1.278,0,0,0,1.278-1.278V12.879a1.278,1.278,0,0,0-2.556,0v9.487a1.278,1.278,0,0,0,1.278,1.278Zm6.352,0a1.278,1.278,0,0,0,1.278-1.278V12.879a1.278,1.278,0,1,0-2.556,0v9.487A1.278,1.278,0,0,0,18.4,23.643Z" transform="translate(-1.217 -1.644)" fill="#d20202"/>
  </g>
</svg>
