<svg xmlns="http://www.w3.org/2000/svg" width="47" height="47" viewBox="0 0 47 47">
  <g id="Groupe_20366" data-name="Groupe 20366" transform="translate(-14 -12.267)">
    <circle id="Ellipse_495" data-name="Ellipse 495" cx="23.5" cy="23.5" r="23.5" transform="translate(14 12.267)" fill="#fff"/>
    <path id="Tracé_23482" data-name="Tracé 23482" d="M14.453,28.905A14.445,14.445,0,0,1,3.537,4.99l0-.006a.452.452,0,0,1,.071-.08,14.433,14.433,0,0,1,21.683,0,.433.433,0,0,1,.067.076,14.446,14.446,0,0,1-10.91,23.921ZM9.438,21.879c1.013,3.39,2.684,5.754,4.563,6.084V21.222A20.552,20.552,0,0,0,9.438,21.879Zm5.466-.663v6.747c1.891-.332,3.57-2.723,4.582-6.148A20.273,20.273,0,0,0,14.9,21.216Zm5.478.844a12.239,12.239,0,0,1-3.115,5.648,13.552,13.552,0,0,0,7.055-3.981A18.385,18.385,0,0,0,20.383,22.06ZM4.608,23.752a13.548,13.548,0,0,0,7.03,3.956,12.179,12.179,0,0,1-3.095-5.576A23.432,23.432,0,0,0,4.608,23.752ZM.911,14.9a13.485,13.485,0,0,0,3.082,8.151,24.342,24.342,0,0,1,4.313-1.8A27.927,27.927,0,0,1,7.518,14.9Zm19.706,6.286a19.12,19.12,0,0,1,4.311,1.847A13.478,13.478,0,0,0,27.994,14.9H21.387A27.978,27.978,0,0,1,20.617,21.191ZM8.421,14.9a26.775,26.775,0,0,0,.777,6.1,21.349,21.349,0,0,1,4.8-.689V14.9ZM14.9,20.313a21.186,21.186,0,0,1,4.818.633,26.85,26.85,0,0,0,.761-6.042H14.9ZM21.387,14h6.607a13.481,13.481,0,0,0-3.112-8.187,24.4,24.4,0,0,1-4.3,1.784A27.873,27.873,0,0,1,21.387,14ZM14.9,14h5.58a26.732,26.732,0,0,0-.789-6.152,21.381,21.381,0,0,1-4.791.686ZM8.421,14H14V8.541a21.181,21.181,0,0,1-4.806-.63A26.778,26.778,0,0,0,8.421,14ZM.911,14H7.518A27.946,27.946,0,0,1,8.3,7.667,19.209,19.209,0,0,1,4.006,5.833,13.482,13.482,0,0,0,.911,14ZM9.433,7.042a20.278,20.278,0,0,0,4.568.6V.943C12.119,1.273,10.446,3.643,9.433,7.042ZM14.9.943V7.631a20.51,20.51,0,0,0,4.548-.654C18.438,3.614,16.775,1.271,14.9.943ZM4.615,5.145A18.442,18.442,0,0,0,8.536,6.8a12.2,12.2,0,0,1,3.1-5.6A13.551,13.551,0,0,0,4.615,5.145ZM17.267,1.2a12.121,12.121,0,0,1,3.08,5.528,23.349,23.349,0,0,0,3.918-1.607A13.546,13.546,0,0,0,17.267,1.2Z" transform="translate(23.047 21.047)" fill="#ff7900"/>
  </g>
</svg>
