<svg xmlns="http://www.w3.org/2000/svg" width="47" height="47" viewBox="0 0 47 47">
  <g id="Groupe_20362" data-name="Groupe 20362" transform="translate(-14 -12.267)">
    <circle id="Ellipse_495" data-name="Ellipse 495" cx="23.5" cy="23.5" r="23.5" transform="translate(14 12.267)" fill="#fff"/>
    <g id="Groupe_20358" data-name="Groupe 20358" transform="translate(20.2 18.466)">
      <rect id="Rectangle_17195" data-name="Rectangle 17195" width="26.282" height="26.282" rx="2" transform="translate(5.319 5.319)" fill="none" stroke="#ff8000" stroke-width="1"/>
      <path id="Tracé_23480" data-name="Tracé 23480" d="M3,27.736V6.092A3.092,3.092,0,0,1,6.092,3H27.736" transform="translate(0 0)" fill="none" stroke="#ff8000" stroke-linecap="round" stroke-width="1" fill-rule="evenodd"/>
      <path id="Tracé_23481" data-name="Tracé 23481" d="M10.1,12.174a3.705,3.705,0,0,1,.957-2.658,4.876,4.876,0,0,1,2.871-1.311V7H16.9V8.206a4.9,4.9,0,0,1,2.922,1.288,3.7,3.7,0,0,1,.972,2.681v.51H17.357v-.673a1.455,1.455,0,0,0-.479-1.241,2.181,2.181,0,0,0-1.336-.36,2.181,2.181,0,0,0-1.336.36,1.459,1.459,0,0,0-.479,1.241,2.108,2.108,0,0,0,.529,1.438,6.469,6.469,0,0,0,1.32,1.125q.791.522,1.7,1.02a12.446,12.446,0,0,1,1.7,1.125,5.931,5.931,0,0,1,1.32,1.45,3.612,3.612,0,0,1,.527,1.985,3.7,3.7,0,0,1-.989,2.69,4.945,4.945,0,0,1-2.937,1.3v1.183H13.927V24.147a4.891,4.891,0,0,1-2.953-1.3A3.738,3.738,0,0,1,10,20.156V19.043h3.432v1.275a1.381,1.381,0,0,0,.51,1.229,2.4,2.4,0,0,0,1.37.348,2.4,2.4,0,0,0,1.37-.348,1.381,1.381,0,0,0,.51-1.229,2.107,2.107,0,0,0-.527-1.438,6.472,6.472,0,0,0-1.32-1.127q-.829-.544-1.7-1.02a12.226,12.226,0,0,1-1.7-1.125,5.9,5.9,0,0,1-1.32-1.45,3.606,3.606,0,0,1-.527-1.984Z" transform="translate(3.822 2.184)" fill="none" stroke="#ff8000" stroke-width="1" fill-rule="evenodd"/>
    </g>
  </g>
</svg>
