<svg xmlns="http://www.w3.org/2000/svg" width="25.224" height="25.224" viewBox="0 0 25.224 25.224">
  <g id="Groupe_19710" data-name="Groupe 19710" transform="translate(1 1)">
    <g id="Icon_feather-settings" data-name="Icon feather-settings" transform="translate(0)">
      <path id="Tracé_23142" data-name="Tracé 23142" d="M19.834,16.667A3.167,3.167,0,1,1,16.667,13.5,3.167,3.167,0,0,1,19.834,16.667Z" transform="translate(-5.055 -5.055)" fill="none" stroke="#fff" stroke-linecap="round" stroke-linejoin="round" stroke-width="2"/>
      <path id="Tracé_23143" data-name="Tracé 23143" d="M20.924,16.279a1.742,1.742,0,0,0,.348,1.921l.063.063a2.112,2.112,0,1,1-2.987,2.987l-.063-.063a1.756,1.756,0,0,0-2.977,1.246v.179a2.111,2.111,0,0,1-4.223,0v-.1a1.742,1.742,0,0,0-1.14-1.594,1.742,1.742,0,0,0-1.921.348l-.063.063a2.112,2.112,0,1,1-2.987-2.987l.063-.063a1.756,1.756,0,0,0-1.246-2.977H3.611a2.111,2.111,0,1,1,0-4.223h.1A1.742,1.742,0,0,0,5.3,9.945a1.742,1.742,0,0,0-.348-1.921L4.889,7.96A2.112,2.112,0,1,1,7.876,4.973l.063.063a1.742,1.742,0,0,0,1.921.348h.084A1.742,1.742,0,0,0,11,3.791V3.611a2.111,2.111,0,0,1,4.223,0v.1A1.756,1.756,0,0,0,18.2,4.952l.063-.063a2.112,2.112,0,1,1,2.987,2.987l-.063.063a1.742,1.742,0,0,0-.348,1.921v.084A1.742,1.742,0,0,0,22.433,11h.179a2.111,2.111,0,1,1,0,4.223h-.1a1.742,1.742,0,0,0-1.594,1.056Z" transform="translate(-1.5 -1.5)" fill="none" stroke="#fff" stroke-linecap="round" stroke-linejoin="round" stroke-width="2"/>
    </g>
  </g>
</svg>
