<svg xmlns="http://www.w3.org/2000/svg" width="47" height="47" viewBox="0 0 47 47">
  <g id="Groupe_20361" data-name="Groupe 20361" transform="translate(-14 -12.267)">
    <circle id="Ellipse_495" data-name="Ellipse 495" cx="23.5" cy="23.5" r="23.5" transform="translate(14 12.267)" fill="#fff"/>
    <g id="Groupe_20357" data-name="Groupe 20357" transform="translate(21.5 17.062)">
      <path id="Tracé_23474" data-name="Tracé 23474" d="M16,24h-.2c-.4-.2-3.8-1.8-3.8-4V17.5a.5.5,0,0,1,1,0V20c0,1.2,2,2.5,3,2.9,1-.5,3-1.7,3-2.9V17.5a.5.5,0,0,1,1,0V20c0,2.2-3.4,3.8-3.8,4Z" fill="#ff7900"/>
      <path id="Tracé_23475" data-name="Tracé 23475" d="M16,19a6.957,6.957,0,0,1-7-7V9.5a.5.5,0,0,1,1,0V12a6,6,0,0,0,12,0V9.5a.5.5,0,0,1,1,0V12A6.957,6.957,0,0,1,16,19Z" fill="#ff7900"/>
      <path id="Tracé_23476" data-name="Tracé 23476" d="M22.5,10H22a1.538,1.538,0,0,1-1.5-1.5v-2A9.537,9.537,0,0,1,13,8.2L11.9,8a.458.458,0,0,0-.4.5A1.538,1.538,0,0,1,10,10H9.5A.458.458,0,0,1,9,9.6L8.1,5.2a3.108,3.108,0,0,1,.6-2.6,2.965,2.965,0,0,1,2.2-1.4L17.7,0a3.21,3.21,0,0,1,2.7.7,3.248,3.248,0,0,1,1.2,2.2,2.7,2.7,0,0,1,1.7,1,2.94,2.94,0,0,1,.6,2.4l-1,3.3a.366.366,0,0,1-.4.4Zm-2-4.5c.2,0,.3,0,.4.1a1.149,1.149,0,0,1,.6.9v2A.472.472,0,0,0,22,9h.1L23,6.1a1.674,1.674,0,0,0-.4-1.5,2.1,2.1,0,0,0-1.4-.7.472.472,0,0,1-.5-.5,2.56,2.56,0,0,0-.8-1.9A2.506,2.506,0,0,0,18,1L11,2.2a2.748,2.748,0,0,0-1.6,1A2.827,2.827,0,0,0,9,5l.8,4H10a.472.472,0,0,0,.5-.5A1.538,1.538,0,0,1,12,7l1.2.2a8.371,8.371,0,0,0,6.7-1.5,1.421,1.421,0,0,1,.6-.2Zm8,26.5H3.5a.472.472,0,0,1-.5-.5V27.1a5.371,5.371,0,0,1,3.8-5.2L12.4,20a.486.486,0,0,1,.6.3.55.55,0,0,1-.3.7L7.1,22.9A4.291,4.291,0,0,0,4,27.1V31H28V27.1a4.5,4.5,0,0,0-3.1-4.3L19.3,21a.474.474,0,1,1,.3-.9L25.2,22A5.371,5.371,0,0,1,29,27.2v4.4A.458.458,0,0,1,28.5,32Z" fill="#ff7900"/>
      <path id="Tracé_23477" data-name="Tracé 23477" d="M28.5,32h-6a.472.472,0,0,1-.5-.5v-1a6.405,6.405,0,0,1,5.7-6.4.764.764,0,0,1,.5.2,5.656,5.656,0,0,1,.8,2.8v4.4A.472.472,0,0,1,28.5,32ZM23,31h5V27.1a4.552,4.552,0,0,0-.5-2A5.474,5.474,0,0,0,23,30.5ZM9.5,32h-6a.472.472,0,0,1-.5-.5V27.1a5.376,5.376,0,0,1,.8-2.8.55.55,0,0,1,.5-.3A6.47,6.47,0,0,1,10,30.4v1C10,31.8,9.8,32,9.5,32ZM4,31H9v-.5a5.474,5.474,0,0,0-4.5-5.4,4.552,4.552,0,0,0-.5,2ZM24.5,13h-2a.472.472,0,0,1-.5-.5v-3a.472.472,0,0,1,.5-.5h1A1.538,1.538,0,0,1,25,10.5v2A.472.472,0,0,1,24.5,13ZM23,12h1V10.5a.472.472,0,0,0-.5-.5H23Z" fill="#ff7900"/>
      <path id="Tracé_23478" data-name="Tracé 23478" d="M21.5,16h-3a.5.5,0,0,1,0-1h3A2.476,2.476,0,0,0,24,12.5v-2a.5.5,0,0,1,1,0v2A3.543,3.543,0,0,1,21.5,16Zm-12-3h-1A1.538,1.538,0,0,1,7,11.5v-1A1.538,1.538,0,0,1,8.5,9h1a.472.472,0,0,1,.5.5v3A.472.472,0,0,1,9.5,13Zm-1-3a.472.472,0,0,0-.5.5v1a.472.472,0,0,0,.5.5H9V10Z" fill="#ff7900"/>
      <path id="Tracé_23479" data-name="Tracé 23479" d="M17.5,17h-1a1.5,1.5,0,0,1,0-3h1a1.5,1.5,0,0,1,0,3Zm-1-2a.5.5,0,0,0,0,1h1a.5.5,0,0,0,0-1Z" fill="#ff7900"/>
    </g>
  </g>
</svg>
