<svg xmlns="http://www.w3.org/2000/svg" width="47" height="47" viewBox="0 0 47 47">
  <g id="Groupe_20369" data-name="Groupe 20369" transform="translate(-14 -12.267)">
    <circle id="Ellipse_495" data-name="Ellipse 495" cx="23.5" cy="23.5" r="23.5" transform="translate(14 12.267)" fill="#fff"/>
    <g id="Layer_2" data-name="Layer 2" transform="translate(20.599 18.354)">
      <path id="Tracé_23486" data-name="Tracé 23486" d="M25.556,2H8.246A3.246,3.246,0,0,0,5,5.246v23.8a3.246,3.246,0,0,0,3.246,3.246h17.31A3.246,3.246,0,0,0,28.8,29.047V5.246A3.246,3.246,0,0,0,25.556,2Zm1.082,27.047a1.082,1.082,0,0,1-1.082,1.082H8.246a1.082,1.082,0,0,1-1.082-1.082V5.246A1.082,1.082,0,0,1,8.246,4.164h17.31a1.082,1.082,0,0,1,1.082,1.082Z" transform="translate(0)" fill="#ff8000"/>
      <path id="Tracé_23487" data-name="Tracé 23487" d="M21.9,21.126H11.082a1.082,1.082,0,1,0,0,2.164H21.9a1.082,1.082,0,1,0,0-2.164Zm0,4.328H11.082a1.082,1.082,0,0,0,0,2.164H21.9a1.082,1.082,0,0,0,0-2.164Zm-6.491-11.9h.27v2.164H14.328a1.082,1.082,0,0,0,0,2.164H15.68a.811.811,0,1,0,1.623,0h.27a3.246,3.246,0,1,0,0-6.491H17.3V9.225h1.352a1.082,1.082,0,0,0,0-2.164H17.3a.811.811,0,1,0-1.623,0h-.27a3.246,3.246,0,0,0,0,6.491Zm2.164,0a1.082,1.082,0,1,1,0,2.164H17.3V13.553ZM15.409,9.225h.27v2.164h-.27a1.082,1.082,0,1,1,0-2.164Z" transform="translate(0.409 0.348)" fill="#ff8000"/>
    </g>
  </g>
</svg>
