<svg xmlns="http://www.w3.org/2000/svg" width="47" height="47" viewBox="0 0 47 47">
  <g id="Groupe_20370" data-name="Groupe 20370" transform="translate(-14 -12.267)">
    <circle id="Ellipse_495" data-name="Ellipse 495" cx="23.5" cy="23.5" r="23.5" transform="translate(14 12.267)" fill="#fff"/>
    <g id="Groupe_20360" data-name="Groupe 20360" transform="translate(21.171 19.611)">
      <path id="Tracé_23488" data-name="Tracé 23488" d="M35.738,30.2H31.3a3.331,3.331,0,0,1-3.331-3.331V10.16A3.331,3.331,0,0,1,31.3,6.829h4.437" transform="translate(-10.478 -2.243)" fill="none" stroke="#ff8000" stroke-linecap="round" stroke-linejoin="round" stroke-miterlimit="10" stroke-width="2"/>
      <path id="Tracé_23489" data-name="Tracé 23489" d="M32.816,26.649H20.849" transform="translate(-7.556 -10.377)" fill="none" stroke="#ff8000" stroke-linecap="round" stroke-linejoin="round" stroke-miterlimit="10" stroke-width="2"/>
      <circle id="Ellipse_496" data-name="Ellipse 496" cx="2.472" cy="2.472" r="2.472" transform="translate(25.279 2.114)" fill="none" stroke="#ff8000" stroke-linecap="round" stroke-linejoin="round" stroke-miterlimit="10" stroke-width="2"/>
      <circle id="Ellipse_497" data-name="Ellipse 497" cx="2.472" cy="2.472" r="2.472" transform="translate(25.279 13.8)" fill="none" stroke="#ff8000" stroke-linecap="round" stroke-linejoin="round" stroke-miterlimit="10" stroke-width="2"/>
      <circle id="Ellipse_498" data-name="Ellipse 498" cx="2.472" cy="2.472" r="2.472" transform="translate(25.264 25.472)" fill="none" stroke="#ff8000" stroke-linecap="round" stroke-linejoin="round" stroke-miterlimit="10" stroke-width="2"/>
      <path id="Tracé_23490" data-name="Tracé 23490" d="M12.887,17.916V26.3L10.7,27.483v7.588H4.62V27.483L2.437,26.3V17.916a3.38,3.38,0,0,1,3.38-3.38H9.508a3.38,3.38,0,0,1,3.379,3.379Z" transform="translate(0 -5.406)" fill="none" stroke="#ff8000" stroke-linecap="round" stroke-linejoin="round" stroke-miterlimit="10" stroke-width="2"/>
      <circle id="Ellipse_499" data-name="Ellipse 499" cx="2.557" cy="2.557" r="2.557" transform="translate(5.106 1.363)" fill="none" stroke="#ff8000" stroke-linecap="round" stroke-linejoin="round" stroke-miterlimit="10" stroke-width="2"/>
    </g>
  </g>
</svg>
