<svg xmlns="http://www.w3.org/2000/svg" width="47" height="47" viewBox="0 0 47 47">
  <g id="Groupe_20364" data-name="Groupe 20364" transform="translate(-14 -12.267)">
    <circle id="Ellipse_495" data-name="Ellipse 495" cx="23.5" cy="23.5" r="23.5" transform="translate(14 12.267)" fill="#fff"/>
    <g id="Groupe_19867" data-name="Groupe 19867" transform="translate(18.831 17.617)">
      <path id="Tracé_23471" data-name="Tracé 23471" d="M21.88,30.65a4.966,4.966,0,0,1-1.332-.121,16.006,16.006,0,0,1-7.506-4.237L8.078,21.328a16.612,16.612,0,0,1-4.237-7.506A5.408,5.408,0,0,1,5.173,8.5l2.3-2.3a1.755,1.755,0,0,1,2.542,0l2.663,2.663a1.832,1.832,0,0,1,.242,2.3L11.1,13.822a1.832,1.832,0,0,0,.242,2.3l6.659,6.659a1.832,1.832,0,0,0,2.3.242l2.663-1.816a1.832,1.832,0,0,1,2.3.242l2.663,2.663a1.821,1.821,0,0,1,.484,1.332,2.539,2.539,0,0,1-.484,1.332l-2.179,2.3A5.5,5.5,0,0,1,21.88,30.65ZM8.8,6.921a.728.728,0,0,0-.484.121l-2.3,2.3a4.1,4.1,0,0,0-1.09,4,13.734,13.734,0,0,0,4,6.9L13.889,25.2a15.94,15.94,0,0,0,6.9,4,4.311,4.311,0,0,0,4-1.09l2.3-2.3c.121-.121.121-.242.121-.484,0-.121-.121-.363-.121-.484l-2.663-2.663a.57.57,0,0,0-.726-.121l-2.663,1.937a3.115,3.115,0,0,1-3.874-.363L10.621,16.97a3.1,3.1,0,0,1-.363-3.874l1.816-2.663c.121-.242.121-.605-.121-.726L9.168,7.042A.445.445,0,0,0,8.8,6.921Z" fill="#ff8000"/>
      <path id="Tracé_23472" data-name="Tracé 23472" d="M10.574,13.137a.728.728,0,0,1-.484-.121L5.732,8.779a.6.6,0,0,1,.847-.847l4.358,4.237a.585.585,0,0,1,0,.847A.445.445,0,0,1,10.574,13.137ZM25.1,27.786a.728.728,0,0,1-.484-.121L20.38,23.428a.6.6,0,0,1,.847-.847l4.237,4.237a.585.585,0,0,1,0,.847c-.121,0-.242.121-.363.121Zm1.211-7.022a1.2,1.2,0,0,1,1.695,1.695m4.479,1.211h-.121a.664.664,0,0,1-.484-.726,4.785,4.785,0,0,0-5.932-5.932c-.363.121-.605-.121-.726-.484s.121-.605.484-.726a5.766,5.766,0,0,1,5.811,1.574,5.835,5.835,0,0,1,1.574,5.811A.8.8,0,0,1,32.487,23.67Z" transform="translate(0.41 0.442)" fill="#ff8000"/>
      <path id="Tracé_23473" data-name="Tracé 23473" d="M26.643,21.167h-.121a.664.664,0,0,1-.484-.726,2.36,2.36,0,0,0-2.906-2.906c-.363.121-.605-.121-.726-.484s.121-.605.484-.726A3.689,3.689,0,0,1,27.369,20.8a1.046,1.046,0,0,1-.726.363Z" transform="translate(3.954 2.219)" fill="#ff8000"/>
    </g>
  </g>
</svg>
