<svg xmlns="http://www.w3.org/2000/svg" width="12.173" height="17.042" viewBox="0 0 12.173 17.042">
  <g id="Groupe_20209" data-name="Groupe 20209" transform="translate(-6 -2)">
    <path id="Tracé_23140" data-name="Tracé 23140" d="M16.107,11.494a3.65,3.65,0,0,1,2.066,3.287v3.956a.3.3,0,0,1-.3.3H6.3a.3.3,0,0,1-.3-.3V14.781a3.65,3.65,0,0,1,2.066-3.287.3.3,0,0,1,.375.1l3.037,4.175V13.752l-.568-.96a.3.3,0,0,1,.254-.445H13.01a.3.3,0,0,1,.254.445l-.568.96V15.77l3.036-4.176A.306.306,0,0,1,16.107,11.494Zm1.457-4.016a5.477,5.477,0,0,1-.733,2.739.607.607,0,0,1-.526.3H14.588a.913.913,0,1,1,0-1.217h1.348A4.261,4.261,0,1,0,7.96,6.412c-.025.1-.135.542-.135.542V8.629a.611.611,0,0,1-.609.612A1.161,1.161,0,0,1,6,8.086V6.868a1.22,1.22,0,0,1,.906-1.177A5.479,5.479,0,0,1,17.564,7.478Z"/>
    <path id="Tracé_23141" data-name="Tracé 23141" d="M17.3,8.652a3.708,3.708,0,0,1-.073.729.609.609,0,1,1-1.193-.242,2.466,2.466,0,0,0,.049-.488,2.389,2.389,0,0,0-.11-.682,1.93,1.93,0,0,1-1.469-1.1,2.424,2.424,0,0,1-2.074,1.175H11.3a2.4,2.4,0,0,0-.086.609,2.442,2.442,0,0,0,1.947,2.386.608.608,0,1,1-.242,1.192A3.652,3.652,0,1,1,17.3,8.652Z" transform="translate(-1.565 -1.174)"/>
  </g>
</svg>
