<svg xmlns="http://www.w3.org/2000/svg" width="47" height="47" viewBox="0 0 47 47">
  <g id="Groupe_20363" data-name="Groupe 20363" transform="translate(-14 -12.267)">
    <circle id="Ellipse_495" data-name="Ellipse 495" cx="23.5" cy="23.5" r="23.5" transform="translate(14 12.267)" fill="#fff"/>
    <g id="Groupe_19865" data-name="Groupe 19865" transform="translate(21 19.267)">
      <path id="Tracé_23469" data-name="Tracé 23469" d="M9.793,1A1.851,1.851,0,0,0,8,2.889V30.113A1.848,1.848,0,0,0,9.793,32H23.209A1.847,1.847,0,0,0,25,30.113V2.89A1.849,1.849,0,0,0,23.209,1Zm0,1.049H23.209a.788.788,0,0,1,.742.84V30.113a.789.789,0,0,1-.742.84H9.793a.79.79,0,0,1-.744-.84V2.89a.791.791,0,0,1,.744-.84ZM12.5,3a.5.5,0,1,0,.5.5A.5.5,0,0,0,12.5,3Zm6.1,0-.008,0H15.4c-.618-.024-.614,1.023,0,1H18.6c.6.005.6-1,0-1ZM10.488,5A.49.49,0,0,0,10,5.49V26.512a.489.489,0,0,0,.488.488H22.512A.49.49,0,0,0,23,26.512V5.49A.49.49,0,0,0,22.512,5ZM11,6H22.021V26H21V16H20V26H19V15H18V26H17V17H16v9H15V13H14V26H11Zm4,2V9h4V8Zm1.512,19.5a1.5,1.5,0,1,0,1.5,1.5A1.506,1.506,0,0,0,16.512,27.5Zm0,.75a.753.753,0,1,1-.75.75A.745.745,0,0,1,16.512,28.25Z" fill="#ff7900"/>
      <path id="Tracé_23470" data-name="Tracé 23470" d="M13.5,1028.36a.5.5,0,1,0,.5.5A.5.5,0,0,0,13.5,1028.36Z" transform="translate(0 -1020.362)" fill="#ff7900"/>
    </g>
  </g>
</svg>
