<svg id="Groupe_19711" data-name="Groupe 19711" xmlns="http://www.w3.org/2000/svg" width="24.672" height="24.672" viewBox="0 0 24.672 24.672">
  <g id="Tracé_23144" data-name="Tracé 23144" transform="translate(0 0)" fill="none">
    <path d="M12.336,0A12.336,12.336,0,1,1,0,12.336,12.336,12.336,0,0,1,12.336,0Z" stroke="none"/>
    <path d="M 12.33598041534424 1.000003814697266 C 9.308030128479004 1.000003814697266 6.461320877075195 2.179153442382812 4.320230484008789 4.320234298706055 C 2.179149627685547 6.461313247680664 1 9.308023452758789 1 12.33597373962402 C 1 15.36392402648926 2.179149627685547 18.21063423156738 4.320230484008789 20.35171318054199 C 6.461320877075195 22.49279403686523 9.308030128479004 23.67194366455078 12.33598041534424 23.67194366455078 C 15.36393070220947 23.67194366455078 18.21063995361328 22.49279403686523 20.35173034667969 20.35171318054199 C 22.49281120300293 18.21063423156738 23.67196083068848 15.36392402648926 23.67196083068848 12.33597373962402 C 23.67196083068848 9.308023452758789 22.49281120300293 6.461313247680664 20.35173034667969 4.320234298706055 C 18.21063995361328 2.179153442382812 15.36393070220947 1.000003814697266 12.33598041534424 1.000003814697266 M 12.33598041534424 3.814697265625e-06 C 19.14895057678223 3.814697265625e-06 24.67196083068848 5.523004531860352 24.67196083068848 12.33597373962402 C 24.67196083068848 19.14894485473633 19.14895057678223 24.67194366455078 12.33598041534424 24.67194366455078 C 5.52301025390625 24.67194366455078 0 19.14894485473633 0 12.33597373962402 C 0 5.523004531860352 5.52301025390625 3.814697265625e-06 12.33598041534424 3.814697265625e-06 Z" stroke="none" fill="#fff"/>
  </g>
  <path id="Icon_ionic-md-help" data-name="Icon ionic-md-help" d="M14.371,17.31h-2.2V15.142h2.2Zm-.033-3.269H12.2c0-3.369,3.2-3.173,3.2-5.3A2.124,2.124,0,0,0,13.27,6.622,2.179,2.179,0,0,0,11.135,8.77H9a4.27,4.27,0,0,1,8.54-.033C17.54,11.4,14.338,11.706,14.338,14.041Z" transform="translate(-0.934 1.431)" fill="#fff"/>
</svg>
