<svg xmlns="http://www.w3.org/2000/svg" width="13.242" height="13.279" viewBox="0 0 13.242 13.279">
  <g id="Groupe_20211" data-name="Groupe 20211" transform="translate(-2.028 -2)">
    <path id="Tracé_23144" data-name="Tracé 23144" d="M2.028,8.141A6.64,6.64,0,0,1,8.649,2,2.141,2.141,0,0,0,7.2,2.612,4.546,4.546,0,0,0,6.185,4.1a9.287,9.287,0,0,0-.636,2.1,13.115,13.115,0,0,0-.211,1.941Zm0,1h3.31a13.115,13.115,0,0,0,.211,1.941,9.286,9.286,0,0,0,.636,2.1A4.547,4.547,0,0,0,7.2,14.667a2.141,2.141,0,0,0,1.447.612A6.64,6.64,0,0,1,2.028,9.137Z" fill="#010101" fill-rule="evenodd"/>
    <path id="Tracé_23145" data-name="Tracé 23145" d="M10.855,3.4a1.047,1.047,0,0,0-.693.329,3.653,3.653,0,0,0-.8,1.189A8.451,8.451,0,0,0,8.79,6.82a12.278,12.278,0,0,0-.2,1.79h4.524a12.285,12.285,0,0,0-.2-1.79,8.449,8.449,0,0,0-.576-1.907,3.652,3.652,0,0,0-.8-1.189A1.047,1.047,0,0,0,10.855,3.4Z" transform="translate(-2.206 -0.469)" fill="#010101"/>
    <path id="Tracé_23146" data-name="Tracé 23146" d="M8.79,14.54a8.45,8.45,0,0,0,.576,1.907,3.653,3.653,0,0,0,.8,1.189,1.047,1.047,0,0,0,.693.329,1.047,1.047,0,0,0,.693-.329,3.652,3.652,0,0,0,.8-1.189,8.448,8.448,0,0,0,.576-1.907,12.285,12.285,0,0,0,.2-1.79H8.593A12.278,12.278,0,0,0,8.79,14.54Z" transform="translate(-2.206 -3.613)" fill="#010101"/>
    <path id="Tracé_23147" data-name="Tracé 23147" d="M12,2a2.141,2.141,0,0,1,1.447.612A4.545,4.545,0,0,1,14.463,4.1,9.288,9.288,0,0,1,15.1,6.2a13.112,13.112,0,0,1,.211,1.941h3.31A6.64,6.64,0,0,0,12,2Z" transform="translate(-3.351)" fill="#010101"/>
    <path id="Tracé_23148" data-name="Tracé 23148" d="M15.1,14.691a9.288,9.288,0,0,1-.636,2.1,4.545,4.545,0,0,1-1.017,1.489A2.141,2.141,0,0,1,12,18.891a6.64,6.64,0,0,0,6.621-6.141h-3.31A13.112,13.112,0,0,1,15.1,14.691Z" transform="translate(-3.351 -3.613)" fill="#010101"/>
  </g>
</svg>
