<svg xmlns="http://www.w3.org/2000/svg" width="47" height="47" viewBox="0 0 47 47">
  <g id="Groupe_20368" data-name="Groupe 20368" transform="translate(-14 -12.267)">
    <circle id="Ellipse_495" data-name="Ellipse 495" cx="23.5" cy="23.5" r="23.5" transform="translate(14 12.267)" fill="#fff"/>
    <g id="Groupe_20359" data-name="Groupe 20359" transform="translate(23.226 21.225)">
      <path id="Tracé_23484" data-name="Tracé 23484" d="M12.49,0A12.49,12.49,0,1,0,24.981,12.49,12.5,12.5,0,0,0,12.49,0Zm0,1.784A10.706,10.706,0,1,1,1.785,12.49,10.71,10.71,0,0,1,12.49,1.784Z" fill="#ff7900" fill-rule="evenodd"/>
      <path id="Tracé_23485" data-name="Tracé 23485" d="M21.2,22.568l6.691,6.691A.892.892,0,1,0,29.149,28l-6.691-6.691A.892.892,0,1,0,21.2,22.568ZM8.892,10.784h4.461a.892.892,0,0,0,0-1.784H8.892a.892.892,0,0,0,0,1.784Zm8.922,5.353H13.353a.892.892,0,1,0,0,1.784h4.461a.892.892,0,0,0,0-1.784Zm0-3.569H8.892a.892.892,0,0,0,0,1.784h8.922a.892.892,0,0,0,0-1.784Zm-.892-1.784h.892a.892.892,0,0,0,0-1.784h-.892a.892.892,0,0,0,0,1.784ZM9.784,16.137H8.892a.892.892,0,1,0,0,1.784h.892a.892.892,0,1,0,0-1.784Z" transform="translate(-0.863 -0.971)" fill="#ff7900" fill-rule="evenodd"/>
    </g>
  </g>
</svg>
