<svg xmlns="http://www.w3.org/2000/svg" width="47" height="47" viewBox="0 0 47 47">
  <g id="Groupe_20365" data-name="Groupe 20365" transform="translate(-14 -12.267)">
    <circle id="Ellipse_495" data-name="Ellipse 495" cx="23.5" cy="23.5" r="23.5" transform="translate(14 12.267)" fill="#fff"/>
    <g id="Page-1" transform="translate(23.9 20)">
      <g id="Dribbble-Light-Preview" transform="translate(0)">
        <g id="icons">
          <path id="stats-_1371_" data-name="stats-[#1371]" d="M378.422,662.7a1.4,1.4,0,0,1-2.8,0V644.006a1.4,1.4,0,0,1,2.8,0Zm0-22.7h-2.8a2.739,2.739,0,0,0-2.8,2.671v21.364a2.739,2.739,0,0,0,2.8,2.671h2.8a2.739,2.739,0,0,0,2.8-2.671V642.671A2.739,2.739,0,0,0,378.422,640Zm-9.814,22.7a1.4,1.4,0,0,1-2.8,0V649.347a1.4,1.4,0,0,1,2.8,0Zm0-17.358h-2.8a2.739,2.739,0,0,0-2.8,2.67v16.023a2.739,2.739,0,0,0,2.8,2.671h2.8a2.739,2.739,0,0,0,2.8-2.671V648.012A2.739,2.739,0,0,0,368.608,645.341ZM388.236,662.7a1.4,1.4,0,0,1-2.8,0v-5.341a1.4,1.4,0,0,1,2.8,0Zm0-9.347h-2.8a2.739,2.739,0,0,0-2.8,2.67v8.012a2.739,2.739,0,0,0,2.8,2.671h2.8a2.739,2.739,0,0,0,2.8-2.671v-8.012A2.739,2.739,0,0,0,388.236,653.353Z" transform="translate(-363 -640)" fill="#ff8000" fill-rule="evenodd"/>
        </g>
      </g>
    </g>
  </g>
</svg>
