<svg xmlns="http://www.w3.org/2000/svg" width="47" height="47" viewBox="0 0 47 47">
  <g id="Groupe_20367" data-name="Groupe 20367" transform="translate(-14 -12.267)">
    <circle id="Ellipse_495" data-name="Ellipse 495" cx="23.5" cy="23.5" r="23.5" transform="translate(14 12.267)" fill="#fff"/>
    <path id="Tracé_23483" data-name="Tracé 23483" d="M2,2V12H7v2H6.049v1h6V14H11V12h5V2ZM3,3H15v8H3ZM24,7a2,2,0,1,0,2,2A2.007,2.007,0,0,0,24,7Zm0,1a1,1,0,1,1-1,1A.993.993,0,0,1,24,8Zm-7.018.5v1h4v-1ZM8,12h2v2H8Zm15.5,0v4h1V12Zm-17,4v4h1V16ZM7,20a2,2,0,1,0,2,2A2.007,2.007,0,0,0,7,20Zm8-3V27h5v2h-.951v1h6V29H24V27h5V17Zm1,1H28v8H16ZM7,21a1,1,0,1,1-1,1A.993.993,0,0,1,7,21Zm3,.5v1h4v-1ZM21,27h2v2H21Z" transform="translate(22 20.233)" fill="#ff7900"/>
  </g>
</svg>
