<svg id="Icon_ionic-ios-close-circle-outline" data-name="Icon ionic-ios-close-circle-outline" xmlns="http://www.w3.org/2000/svg" width="14.241" height="14.241" viewBox="0 0 14.241 14.241">
  <path id="Tracé_23192" data-name="Tracé 23192" d="M17.684,16.907l-1.8-1.8,1.8-1.8a.547.547,0,1,0-.774-.774l-1.8,1.8-1.8-1.8a.547.547,0,1,0-.774.774l1.8,1.8-1.8,1.8a.529.529,0,0,0,0,.774.543.543,0,0,0,.774,0l1.8-1.8,1.8,1.8a.55.55,0,0,0,.774,0A.543.543,0,0,0,17.684,16.907Z" transform="translate(-7.985 -7.983)" fill="#ee3b3b"/>
  <path id="Tracé_23193" data-name="Tracé 23193" d="M10.5,4.334a6.16,6.16,0,1,1-4.358,1.8,6.121,6.121,0,0,1,4.358-1.8m0-.959A7.121,7.121,0,1,0,17.616,10.5,7.12,7.12,0,0,0,10.5,3.375Z" transform="translate(-3.375 -3.375)" fill="#ee3b3b"/>
</svg>
