<svg xmlns="http://www.w3.org/2000/svg" width="11.488" height="14.36" viewBox="0 0 11.488 14.36">
  <path id="Layer_2" data-name="Layer 2" d="M14.77,3.436H12.616V2.718A.718.718,0,0,0,11.9,2H7.59a.718.718,0,0,0-.718.718v.718H4.718A.718.718,0,0,0,4,4.154V15.642a.718.718,0,0,0,.718.718H14.77a.718.718,0,0,0,.718-.718V4.154A.718.718,0,0,0,14.77,3.436Zm-6.462,0H11.18V4.872H8.308ZM6.872,7.744h3.59a.718.718,0,0,1,0,1.436H6.872a.718.718,0,0,1,0-1.436Zm5.744,5.744H6.872a.718.718,0,0,1,0-1.436h5.744a.718.718,0,0,1,0,1.436Zm0-2.154H6.872a.718.718,0,0,1,0-1.436h5.744a.718.718,0,1,1,0,1.436Z" transform="translate(-4 -2)"/>
</svg>
