<svg id="refresh" xmlns="http://www.w3.org/2000/svg" width="20.323" height="21.203" viewBox="0 0 20.323 21.203">
  <path id="Tracé_23150" data-name="Tracé 23150" d="M6.757,21.327c.021.016.044.029.065.045.113.087.234.16.35.242.26.186.52.37.794.529l.027.013a9.728,9.728,0,0,0,1.062.537l.12.05c.17.071.335.14.523.206a10.734,10.734,0,0,0,1.291.354c.252.052.492.091.719.121.035,0,.07.006.105.01.159.019.319.037.462.045.265.027.544.04.81.04A10.249,10.249,0,0,0,23.323,13.282a1.138,1.138,0,1,0-2.275,0,7.972,7.972,0,0,1-7.963,7.963c-.26,0-.516-.026-.772-.052-.185-.015-.385-.046-.587-.081-.179-.031-.358-.064-.533-.108-.13-.031-.254-.067-.378-.1a8,8,0,0,1-1.7-.722l-.008,0c-.206-.119-.4-.258-.593-.395-.1-.072-.206-.134-.3-.211S8,19.386,7.894,19.3c-.161-.14-.324-.277-.476-.427-.075-.076-.141-.162-.213-.242l2.037-.367a1.138,1.138,0,0,0-.4-2.239l-4.75.856A1.139,1.139,0,0,0,3.17,18.2l.856,4.749a1.139,1.139,0,0,0,1.119.935,1.164,1.164,0,0,0,.2-.018,1.139,1.139,0,0,0,.918-1.322l-.355-1.966.027.024A10.48,10.48,0,0,0,6.757,21.327Zm12.81-16.09c-.02-.016-.043-.028-.063-.043-.118-.091-.246-.168-.367-.254-.254-.181-.508-.362-.776-.518-.02-.011-.041-.019-.061-.031a9.719,9.719,0,0,0-1.031-.521l-.12-.05c-.17-.071-.335-.14-.523-.206a10.6,10.6,0,0,0-1.292-.354c-.251-.052-.49-.091-.718-.121-.035,0-.07-.006-.1-.01-.16-.019-.319-.037-.463-.045-.266-.027-.544-.04-.81-.04A10.249,10.249,0,0,0,3,13.282a1.138,1.138,0,1,0,2.275,0,7.972,7.972,0,0,1,7.963-7.963c.26,0,.516.026.772.052.185.015.385.046.587.081.179.031.358.064.533.108.13.032.254.067.378.1a8,8,0,0,1,2.317,1.13c.1.068.2.127.288.2.109.084.207.182.311.272.163.142.329.281.484.436.074.075.138.159.209.237L17.081,8.3a1.138,1.138,0,0,0,.2,2.257,1.165,1.165,0,0,0,.2-.018l4.75-.856a1.139,1.139,0,0,0,.918-1.322L22.3,3.616a1.138,1.138,0,1,0-2.239.4l.355,1.966c-.014-.014-.03-.025-.044-.038A10.71,10.71,0,0,0,19.567,5.237Z" transform="translate(-3 -2.68)" fill="#1aaddb"/>
</svg>
