<svg xmlns="http://www.w3.org/2000/svg" width="16" height="16" viewBox="0 0 16 16">
  <path id="Tracé_23151" data-name="Tracé 23151" d="M6.571,2A3.429,3.429,0,1,0,9.54,7.143h1.031a.567.567,0,0,0,.255-.06l.887-.445.887.445a.567.567,0,0,0,.255.06h2.286a.57.57,0,0,0,.4-.167L16.69,5.833a.571.571,0,0,0,0-.808L15.547,3.882a.57.57,0,0,0-.4-.167H9.54A3.427,3.427,0,0,0,6.571,2Zm0,1.714A1.714,1.714,0,1,1,4.857,5.429,1.715,1.715,0,0,1,6.571,3.714Zm0,1.143a.571.571,0,1,0,.571.571A.572.572,0,0,0,6.571,4.857ZM4.286,10A2.287,2.287,0,0,0,2,12.286v3.429A2.287,2.287,0,0,0,4.286,18H15.714A2.287,2.287,0,0,0,18,15.714V12.286A2.287,2.287,0,0,0,15.714,10Zm.571,2.621a.57.57,0,0,1,.4.167l.4.4.4-.4a.571.571,0,1,1,.808.808l-.4.4.4.4a.571.571,0,1,1-.808.808l-.4-.4-.4.4a.571.571,0,1,1-.808-.808l.4-.4-.4-.4a.571.571,0,0,1,.4-.975Zm4.335,0a.57.57,0,0,1,.4.167l.4.4.4-.4a.571.571,0,1,1,.808.808l-.4.4.4.4a.571.571,0,1,1-.808.808l-.4-.4-.4.4a.571.571,0,1,1-.808-.808l.4-.4-.4-.4a.571.571,0,0,1,.4-.975Zm4.335,0a.57.57,0,0,1,.4.167l.4.4.4-.4a.571.571,0,1,1,.808.808l-.4.4.4.4a.571.571,0,1,1-.808.808l-.4-.4-.4.4a.571.571,0,1,1-.808-.808l.4-.4-.4-.4a.571.571,0,0,1,.4-.975Z" transform="translate(-2 -2)" fill-rule="evenodd"/>
</svg>
