<svg xmlns="http://www.w3.org/2000/svg" width="17.004" height="17.004" viewBox="0 0 17.004 17.004">
  <path id="Tracé_23152" data-name="Tracé 23152" d="M10.5,2A8.5,8.5,0,1,1,2,10.5,8.5,8.5,0,0,1,10.5,2Zm0,12.045a1.063,1.063,0,1,0,1.063,1.063A1.063,1.063,0,0,0,10.5,14.045Zm0-8.5A2.834,2.834,0,0,0,7.668,8.377a.709.709,0,1,0,1.417,0,1.417,1.417,0,1,1,2.834,0A1.645,1.645,0,0,1,11.4,9.649l-.164.177-.374.382a3.079,3.079,0,0,0-1.068,2.42.709.709,0,0,0,1.417,0,1.645,1.645,0,0,1,.519-1.272l.164-.177.374-.382a3.079,3.079,0,0,0,1.068-2.42A2.834,2.834,0,0,0,10.5,5.543Z" transform="translate(-2 -2)" fill="#212121"/>
</svg>
