<svg xmlns="http://www.w3.org/2000/svg" width="22.543" height="22.543" viewBox="0 0 22.543 22.543">
  <path id="Tracé_23512" data-name="Tracé 23512" d="M25.18,10.878,17.665,3.363a1.252,1.252,0,0,0-.4-.263,1.365,1.365,0,0,0-.488-.1H6.757A3.757,3.757,0,0,0,3,6.757V21.786a3.757,3.757,0,0,0,3.757,3.757H21.786a3.757,3.757,0,0,0,3.757-3.757V11.767A1.252,1.252,0,0,0,25.18,10.878ZM10.514,5.5h5.01v2.5h-5.01Zm7.514,17.533H10.514V19.281a1.252,1.252,0,0,1,1.252-1.252h5.01a1.252,1.252,0,0,1,1.252,1.252Zm5.01-1.252a1.252,1.252,0,0,1-1.252,1.252H20.533V19.281a3.757,3.757,0,0,0-3.757-3.757h-5.01A3.757,3.757,0,0,0,8.01,19.281v3.757H6.757A1.252,1.252,0,0,1,5.5,21.786V6.757A1.252,1.252,0,0,1,6.757,5.5H8.01V9.262a1.252,1.252,0,0,0,1.252,1.252h7.514a1.252,1.252,0,0,0,1.252-1.252V7.271l5.01,5.01Z" transform="translate(-3 -3)" fill="#3caf2f"/>
</svg>
