<svg xmlns="http://www.w3.org/2000/svg" width="23.559" height="21.203" viewBox="0 0 23.559 21.203">
  <path id="Tracé_23493" data-name="Tracé 23493" d="M16.277,4.356l2.156,2.356H23.2V20.847H4.356V6.712H9.127l2.156-2.356h4.995M17.314,2H10.246L8.09,4.356H4.356A2.363,2.363,0,0,0,2,6.712V20.847A2.363,2.363,0,0,0,4.356,23.2H23.2a2.363,2.363,0,0,0,2.356-2.356V6.712A2.363,2.363,0,0,0,23.2,4.356H19.469ZM13.78,10.246a3.534,3.534,0,1,1-3.534,3.534,3.544,3.544,0,0,1,3.534-3.534m0-2.356a5.89,5.89,0,1,0,5.89,5.89A5.892,5.892,0,0,0,13.78,7.89Z" transform="translate(-2 -2)" fill="#ff7900"/>
</svg>
