<svg xmlns="http://www.w3.org/2000/svg" width="25.754" height="24.914" viewBox="0 0 25.754 24.914">
  <path id="XMLID_1414_" d="M24.634,6.2h-5.6V2.84c0-.476-.252-.84-.7-.84H7.418c-.448,0-.7.364-.7.84V6.2H1.12A1.1,1.1,0,0,0,0,7.291V20.14a1.172,1.172,0,0,0,1.12,1.176H5.235l-.672,4.367a1.025,1.025,0,0,0,.224.84,1.012,1.012,0,0,0,.756.392h14.7a1.1,1.1,0,0,0,.756-.42.908.908,0,0,0,.224-.784l-.7-4.4h4.115a1.172,1.172,0,0,0,1.12-1.176V7.291A1.1,1.1,0,0,0,24.634,6.2ZM8.4,3.68h8.958V6.2H8.4ZM6.662,24.955l1.064-7h10.3l1.064,7Zm16.852-5.879H20.183l-.364-2.3A.946.946,0,0,0,18.84,16H6.886a.967.967,0,0,0-.98.784l-.336,2.3H2.239V8.439H23.515ZM5.123,11.238a.825.825,0,0,1,.84-.84H8.594a.84.84,0,0,1,0,1.68H5.963a.842.842,0,0,1-.84-.84Z" transform="translate(0 -2)" fill="#ff7900"/>
</svg>
